<svg xmlns="http://www.w3.org/2000/svg" viewBox="0.9898553490638733 0 653.0701904296875 112.89999389648438"><g xmlns="http://www.w3.org/2000/svg" fill="#002D74" fill-rule="nonzero"><path d="M40.73 81.65a60.7 60.7 0 007.07-4.62V53.28l-7.07-4.7v33.07zM40.73 32.12l7.07 4.7v-12c-2.36-.11-4.71-.18-7.07-.2v7.5zM61.93 26.06c-2.35-.3-4.71-.54-7.07-.75v16.21l7.07 4.71V26.06zM54.86 57.97v12.92a72 72 0 007.07-8.2l-7.07-4.72zM69 27.13v23.79a81.19 81.19 0 007-22.48l-.24-.05c-2.24-.473-4.49-.897-6.75-1.27M47.8 36.83v16.45l7.06 4.69V41.53zM61.93 46.28v16.44a72.76 72.76 0 007-11.71v-.05l-7-4.68zM25.24 54.34a11.18 11.18 0 005.32-3.31 21.53 21.53 0 00-2.71-.78 17.09 17.09 0 01-2.61 4.09M14 51.04a11.19 11.19 0 005.33 3.31 17.26 17.26 0 01-2.59-4.07 21.33 21.33 0 00-2.71.8M21.27 33.9a15.93 15.93 0 00-2.42 3.54c.76.1 1.57.17 2.42.2V33.9zM28.56 48.28a23.5 23.5 0 013.25 1 11.07 11.07 0 001.53-4.65h-4.12a15.59 15.59 0 01-.66 3.64M19.36 32.97A11.19 11.19 0 0014 36.28c.885.323 1.79.587 2.71.79a17.18 17.18 0 012.62-4.1M30.56 36.28a11.11 11.11 0 00-5.32-3.3 17 17 0 012.61 4.09 21.43 21.43 0 002.71-.79M29.22 42.64h4.12a11.07 11.07 0 00-1.53-4.65 23.5 23.5 0 01-3.25 1 16 16 0 01.66 3.64M23.31 53.42a15.47 15.47 0 002.43-3.54c-.76-.1-1.57-.17-2.43-.2v3.74zM21.27 44.68h-3.85a14 14 0 00.64 3.25 27.93 27.93 0 013.21-.29v-2.96zM23.31 47.64a27.9 27.9 0 013.22.29 13.47 13.47 0 00.65-3.25h-3.87v2.96zM25.75 37.44a15.74 15.74 0 00-2.44-3.56v3.76c.86 0 1.68-.1 2.44-.2M27.18 42.64a14.06 14.06 0 00-.64-3.26 28 28 0 01-3.23.3v3l3.87-.04zM18.85 49.88a15.84 15.84 0 002.42 3.53v-3.73c-.85 0-1.66.1-2.42.2M16 39a24.12 24.12 0 01-3.26-1 11.21 11.21 0 00-1.52 4.65h4.13a15.51 15.51 0 01.65-3.64M21.27 39.68a27.84 27.84 0 01-3.21-.3 14.06 14.06 0 00-.64 3.26h3.85v-2.96zM15.38 44.68h-4.13a11.21 11.21 0 001.52 4.65A24.12 24.12 0 0116 48.28a15.6 15.6 0 01-.65-3.64"></path><path d="M2.17 28.46c5.19 32 25.24 47.68 35.23 53.19v-57a177.83 177.83 0 00-35 3.79l-.23.02zm20.12 2.07A13.13 13.13 0 119.16 43.66c.006-7.25 5.88-13.124 13.13-13.13"></path><path d="M75.7 3.96a175.46 175.46 0 00-73.25 0A1.92 1.92 0 00.99 5.82v6.62c-.007 4.128.24 8.252.74 12.35a182.06 182.06 0 0174.82 0c.495-4.095.742-8.216.74-12.34V5.83a1.91 1.91 0 00-1.52-1.88m-8.25 16.4a160 160 0 00-28.38-2.28c-9.506-.085-19 .678-28.37 2.28a.42.42 0 01-.47-.61l6-13.34c.06-.13 4-2.06 4-2.06a39.38 39.38 0 0118.83 1.51 39.34 39.34 0 0118.82-1.51s3.91 1.93 4 2.06l6 13.34a.41.41 0 01-.46.61"></path><path d="M56.33 6.64l2.55 6.8c-5.92-.81-10.83-.44-18.07 1.93v.64c6.84-.26 15.5-.64 22.49.86L59.49 8.1l-3.16-1.46zM19.18 13.44l2.54-6.8-3.15 1.46-3.81 8.77c7-1.5 15.64-1.12 22.48-.86v-.64C30.01 13 25.1 12.63 19.18 13.44"></path><g><path d="M99.78 17.74c0-6-.54-6.63-3.72-6.9l-1.35-.11c-.32-.22-.21-1.19.11-1.35 3.13.11 5 .16 7.22.16 2.22 0 4-.05 6.15-.16.33.16.44 1.13.11 1.35l-.81.11c-3.18.43-3.29 1.18-3.29 6.9v20c0 4.26-.21 8-1.24 10.46-1.78 4.32-5.61 7.77-10.62 7.77-.65 0-2.32-.06-2.32-1.13 0-1.07.81-2.49 1.94-2.49a6.53 6.53 0 012 .33 8.63 8.63 0 002.27.38 2.31 2.31 0 002.16-1.41c1.24-2.53 1.4-10.62 1.4-13.54l-.01-20.37zM108.19 30.44a15.72 15.72 0 0116.2-16.06c10.51 0 15.78 7.6 15.78 15.61a15.53 15.53 0 01-15.78 15.88c-10.1 0-16.2-7.24-16.2-15.43m27.43 1c0-7.51-3.32-15.61-12-15.61-4.73 0-10.87 3.23-10.87 13.2 0 6.73 3.27 15.47 12.24 15.47 5.46 0 10.64-4.1 10.64-13.06M150.51 30.44c-2.18 0-2.27.1-2.27 1.46v6.38c0 4.78.22 5.42 2.77 5.69l1.32.14c.27.18.18 1-.09 1.14-2.46-.1-4-.14-5.78-.14-2 0-3.5.09-5.28.14a.9.9 0 01-.09-1.14l.78-.14c2.54-.45 2.64-.91 2.64-5.69V21.93c0-4.77-.32-5.55-2.69-5.73l-1.18-.09c-.28-.18-.19-1 .09-1.14 2.23.05 3.78.14 5.73.14 1.78 0 3.32 0 5.28-.14.27.14.36 1 .09 1.14l-.87.09c-2.63.27-2.72 1-2.72 5.73v5.24c0 1.41.09 1.45 2.27 1.45h13c2.19 0 2.28 0 2.28-1.45v-5.24c0-4.77-.09-5.46-2.78-5.73l-.86-.09c-.27-.18-.18-1 .09-1.14 2.09.1 3.64.14 5.5.14 1.86 0 3.33 0 5.37-.14.27.14.37 1 .1 1.14l-1 .09c-2.64.27-2.73 1-2.73 5.73v16.35c0 4.78.09 5.37 2.73 5.69l1.09.14c.27.18.18 1-.09 1.14-2.18-.1-3.73-.14-5.51-.14-1.78 0-3.5 0-5.5.14a.9.9 0 01-.09-1.14l.86-.14c2.78-.45 2.78-.91 2.78-5.69v-6.41c0-1.36-.09-1.46-2.28-1.46l-12.96.03zM204.43 37.4c0 1.37 0 6.78.13 8a.81.81 0 01-.86.51c-.54-.78-1.86-2.37-5.82-6.87l-10.56-12c-1.23-1.41-4.32-5.14-5.28-6.13H182a11.63 11.63 0 00-.22 2.95v9.92c0 2.14 0 8.05.81 9.41.28.51 1.19.78 2.33.87l1.4.14a.83.83 0 01-.09 1.14c-2-.1-3.64-.14-5.32-.14-1.91 0-3.14 0-4.73.14a.85.85 0 01-.09-1.14l1.23-.14c1-.13 1.77-.41 2-.91.63-1.63.59-7.19.59-9.37V20.57a4.13 4.13 0 00-1-3.27 5 5 0 00-2.82-1.1l-.78-.09a.8.8 0 01.1-1.14c1.91.14 4.32.14 5.14.14.7.003 1.398-.044 2.09-.14.91 2.33 6.28 8.33 7.78 10l4.41 5c3.14 3.51 5.37 6 7.51 8.24h.09a4.65 4.65 0 00.18-1.91v-9.74c0-2.14 0-8.05-.9-9.42-.28-.41-1-.68-2.83-.91l-.77-.09c-.32-.27-.28-1 .09-1.14 2.09.09 3.64.14 5.37.14 2 0 3.14-.05 4.68-.14a.8.8 0 01.1 1.14l-.64.09c-1.46.23-2.37.59-2.55 1-.77 1.63-.68 7.28-.68 9.37l-.05 10.8zM216.45 45.87a14.14 14.14 0 01-7.09-1.69 21.14 21.14 0 01-1.23-6.36c.23-.33.91-.42 1.09-.14.68 2.31 2.54 6.78 7.82 6.78 3.83 0 5.7-2.51 5.7-5.23 0-2-.41-4.23-3.74-6.38l-4.32-2.82c-2.27-1.5-4.91-4.09-4.91-7.82 0-4.33 3.36-7.83 9.28-7.83a18 18 0 014.23.59 5.84 5.84 0 001.59.28c.534 1.802.81 3.67.82 5.55-.18.27-.91.41-1.14.13-.59-2.18-1.81-5.14-6.18-5.14-4.37 0-5.42 3-5.42 5.06 0 2.63 2.19 4.54 3.87 5.59l3.64 2.27c2.87 1.78 5.69 4.42 5.69 8.74 0 5-3.78 8.42-9.7 8.42M253.15 27.72c-2.59 0-2.69.11-2.69 1.72v7.61c0 5.66.26 6.42 3.28 6.74l1.57.17c.32.21.22 1.18-.11 1.34-2.91-.11-4.74-.16-6.85-.16-2.32 0-4.15.11-6.26.16a1 1 0 01-.1-1.34l.91-.17c3-.54 3.13-1.08 3.13-6.74V17.63c0-5.66-.38-6.58-3.18-6.79l-1.4-.11a1.06 1.06 0 01.11-1.35c2.64 0 4.47.16 6.79.16 2.11 0 3.94-.05 6.26-.16.32.16.43 1.13.1 1.35l-1 .11c-3.13.32-3.23 1.13-3.23 6.79v6.2c0 1.68.1 1.73 2.69 1.73h15.43c2.59 0 2.69 0 2.69-1.73v-6.2c0-5.66-.1-6.47-3.29-6.79l-1-.11c-.33-.22-.22-1.19.11-1.35 2.47.11 4.31.16 6.52.16s3.94-.05 6.37-.16c.32.16.43 1.13.1 1.35l-1.13.11c-3.12.32-3.24 1.13-3.24 6.79v19.42c0 5.66.12 6.36 3.24 6.74l1.3.17c.32.21.21 1.18-.11 1.34-2.59-.11-4.43-.16-6.53-.16-2.1 0-4.15.05-6.52.16a1 1 0 01-.11-1.34l1-.17c3.29-.54 3.29-1.08 3.29-6.74v-7.61c0-1.61-.1-1.72-2.69-1.72h-15.45z"></path><path d="M279.88 30.44a15.73 15.73 0 0116.2-16.06c10.52 0 15.79 7.6 15.79 15.61a15.53 15.53 0 01-15.79 15.88c-10.1 0-16.2-7.24-16.2-15.43m27.44 1c0-7.51-3.32-15.61-12-15.61-4.73 0-10.87 3.23-10.87 13.2 0 6.73 3.27 15.47 12.24 15.47 5.46 0 10.64-4.1 10.64-13.06M320.11 38.28c0 4.78.09 5.37 3 5.69l1.23.14a.9.9 0 01-.09 1.14c-2.59-.1-4.1-.14-5.92-.14-1.82 0-3.55 0-5.55.14a.9.9 0 01-.09-1.14l1-.14c2.63-.36 2.73-.91 2.73-5.69V21.53c0-3.87-.1-4.65-2.14-4.87l-1.64-.19a.75.75 0 01.09-1.13 71.26 71.26 0 019-.37c3.78 0 6.6.5 8.73 1.82a7.86 7.86 0 013.65 6.83 7.71 7.71 0 01-4.56 7.23 15.27 15.27 0 01-6.27 1.37c-.32-.14-.32-.82-.05-.91 4.91-.91 6.69-3.69 6.69-7.65 0-4.41-2.6-7.27-7.33-7.27-2.41 0-2.45.17-2.45 1.63l-.03 20.26zM339 21.93c0-4.77-.09-5.5-2.73-5.73l-1.14-.09c-.27-.18-.18-1 .09-1.14 2.23.09 3.69.14 5.73.14 1.78 0 3.33-.05 5.28-.14.27.14.37 1 .09 1.14l-.86.09c-2.64.27-2.73 1-2.73 5.73v5.24c0 .86.09 1.73.59 1.73a2.54 2.54 0 001.27-.51c.64-.54 1.82-1.72 2.33-2.18l4.91-4.87c.86-.82 3.09-3.14 3.55-3.77.178-.205.29-.46.32-.73 0-.18-.19-.32-.78-.46l-1.23-.27a.76.76 0 01.1-1.14c1.59.09 3.4.14 5 .14s3.14-.05 4.5-.14a.85.85 0 01.1 1.14 11.14 11.14 0 00-4.23 1.28 44.69 44.69 0 00-6.38 5.27l-4.09 3.87c-.64.64-1.05 1.05-1.05 1.41 0 .36.28.68.87 1.41 4.32 5 7.82 9.05 11.37 12.78a5.23 5.23 0 003.47 1.87l.88.14a.81.81 0 01-.1 1.14c-1.18-.1-2.43-.14-4.57-.14-1.86 0-3.46 0-5.55.14-.32-.1-.45-.87-.18-1.14l1.05-.19c.63-.09 1.09-.22 1.09-.45s-.32-.63-.64-1.05c-.86-1.09-2-2.32-3.77-4.27l-3.56-4.1c-2.6-2.91-3.33-3.82-4.42-3.82-.68 0-.77.59-.77 2.19v5.83c0 4.78.09 5.42 2.64 5.69l1.23.14c.27.18.18 1-.1 1.14-2.22-.1-3.77-.14-5.55-.14-1.78 0-3.41 0-5.28.14a.88.88 0 01-.08-1.14l.91-.14c2.41-.36 2.5-.91 2.5-5.69L339 21.93zM370.27 22.03c0-4.83-.09-5.6-2.78-5.83l-1.13-.09c-.28-.18-.19-1 .08-1.14 2.28.09 3.83.14 5.74.14 1.91 0 3.37-.05 5.64-.14.27.14.36 1 .09 1.14l-1.14.09c-2.68.23-2.77 1-2.77 5.83v16.19c0 4.83.09 5.46 2.77 5.78l1.14.14c.27.18.18 1-.09 1.14-2.27-.1-3.82-.14-5.64-.14-1.82 0-3.28 0-5.56.14a.9.9 0 01-.09-1.14l1-.14c2.69-.32 2.78-1 2.78-5.78l-.04-16.19zM409.62 37.4c0 1.37 0 6.78.14 8a.81.81 0 01-.86.51c-.55-.78-1.87-2.37-5.83-6.87l-10.55-12c-1.23-1.41-4.32-5.14-5.28-6.13h-.09a11.5 11.5 0 00-.23 2.95v9.92c0 2.14.05 8.05.82 9.41.27.51 1.19.78 2.32.87l1.41.14a.84.84 0 01-.09 1.14c-2.05-.1-3.64-.14-5.32-.14-1.91 0-3.14 0-4.73.14a.84.84 0 01-.09-1.14l1.23-.14c1-.13 1.77-.41 2-.91.63-1.63.59-7.19.59-9.37V20.57a4.17 4.17 0 00-1-3.27 5 5 0 00-2.82-1.1l-.78-.09a.8.8 0 01.1-1.14c1.91.14 4.32.14 5.13.14a14.88 14.88 0 002.1-.14c.91 2.33 6.28 8.33 7.78 10l4.41 5c3.14 3.51 5.37 6 7.51 8.24h.09a4.65 4.65 0 00.18-1.91v-9.74c0-2.14 0-8.05-.91-9.42-.27-.41-1-.68-2.82-.91l-.77-.09c-.32-.27-.28-1 .09-1.14 2.09.09 3.64.14 5.37.14 1.95 0 3.14-.05 4.68-.14a.79.79 0 01.09 1.14l-.63.09c-1.46.23-2.37.59-2.55 1-.78 1.63-.69 7.28-.69 9.37v10.8zM421.58 45.87a14.15 14.15 0 01-7.1-1.69 20.83 20.83 0 01-1.23-6.36c.23-.33.91-.42 1.09-.14.68 2.31 2.55 6.78 7.83 6.78 3.82 0 5.69-2.51 5.69-5.23 0-2-.42-4.23-3.74-6.38l-4.32-2.82c-2.28-1.5-4.92-4.09-4.92-7.82 0-4.33 3.37-7.83 9.29-7.83a18 18 0 014.23.59 5.84 5.84 0 001.6.31c.534 1.802.81 3.67.82 5.55-.18.27-.91.41-1.14.13-.59-2.18-1.81-5.14-6.18-5.14-4.37 0-5.42 3-5.42 5.06 0 2.63 2.18 4.54 3.87 5.59l3.64 2.27c2.86 1.78 5.68 4.42 5.68 8.74 0 5-3.77 8.42-9.68 8.42"></path></g><g><path d="M155.29 69c0-2.46 0-2.84-1.41-3h-.59c-.14-.09-.09-.52.05-.59 1.15.05 1.91.07 3 .07s1.72 0 2.73-.07c.14.07.19.5.05.59h-.44c-1.37.14-1.42.49-1.42 3v2.71c0 .45.05.9.31.9.241-.026.47-.12.66-.27.33-.28.94-.89 1.2-1.12l2.54-2.52c.44-.42 1.59-1.62 1.83-1.95a.71.71 0 00.17-.37c0-.1-.1-.17-.41-.24l-.63-.14a.4.4 0 01.05-.59c.82.05 1.76.07 2.58.07.82 0 1.63 0 2.33-.07a.43.43 0 01.05.59 5.83 5.83 0 00-2.19.66 23.5 23.5 0 00-3.29 2.72l-2.12 2c-.33.33-.54.54-.54.73 0 .19.14.36.45.73 2.23 2.56 4 4.68 5.88 6.61a2.91 2.91 0 001.88 1l.63.07a.41.41 0 010 .59c-.61 0-1.53-.07-2.64-.07-1 0-1.78 0-2.86.07-.17 0-.24-.45-.1-.59l.54-.09c.33-.05.57-.12.57-.23 0-.11-.17-.33-.33-.55-.45-.56-1.06-1.19-2-2.21l-1.92-2.16c-1.34-1.5-1.71-2-2.28-2-.35 0-.4.31-.4 1.13v3c0 2.47.05 2.8 1.37 2.94l.63.07a.47.47 0 01-.05.59c-1.15 0-1.95-.07-2.87-.07-.92 0-1.76 0-2.72.07a.46.46 0 01-.05-.59l.47-.07c1.25-.18 1.29-.47 1.29-2.94V69zM172.34 69.03c0-2.23-.07-2.64-1-2.75l-.75-.09a.39.39 0 010-.59c1.32-.12 2.94-.19 5.24-.19a8.43 8.43 0 013.93.7 3.52 3.52 0 012 3.3 4.35 4.35 0 01-2.94 3.92c-.12.14 0 .38.11.57 1.88 3 3.13 4.91 4.73 6.26a2.79 2.79 0 001.63.65.2.2 0 010 .33 3.68 3.68 0 01-1 .12c-2 0-3.19-.59-4.87-3-.61-.88-1.57-2.49-2.3-3.55a1.68 1.68 0 00-1.67-.76c-1.06 0-1.11 0-1.11.52v3c0 2.47.05 2.76 1.41 2.94l.5.07a.47.47 0 010 .59c-1.06 0-1.86-.07-2.8-.07-.94 0-1.83 0-2.94.07-.14-.07-.18-.42 0-.59l.58-.07c1.37-.16 1.42-.47 1.42-2.94l-.17-8.44zm1.92 3.36a1.86 1.86 0 00.07.78c.07.07.43.12 1.63.12a3.93 3.93 0 002.42-.62 3.34 3.34 0 001.17-2.91 3.46 3.46 0 00-3.76-3.62c-1.46 0-1.53.09-1.53.75v5.5zM188.67 69.05c0-2.49 0-2.89-1.43-3h-.59c-.14-.09-.09-.52 0-.59 1.18.05 2 .07 3 .07s1.74 0 2.92-.07c.14.07.19.5 0 .59h-.58c-1.39.11-1.44.51-1.44 3v8.37c0 2.5 0 2.83 1.44 3l.58.07c.15.1.1.52 0 .59-1.18 0-2-.07-2.92-.07-.92 0-1.78 0-3 .07a.46.46 0 010-.59l.59-.07c1.39-.16 1.43-.49 1.43-3v-8.37zM197.8 69c0-2.44-.05-2.79-1.44-3h-.38c-.14-.09-.09-.52 0-.59 1 .05 1.81.07 2.77.07h4.43c1.5 0 2.89 0 3.17-.07.19 1.035.318 2.08.38 3.13a.47.47 0 01-.59 0c-.35-1.1-.56-1.92-1.79-2.23a11 11 0 00-2.28-.14h-1.69c-.71 0-.71 0-.71.94v4.7c0 .66.07.66.78.66h1.36a8.39 8.39 0 002-.14c.29-.09.45-.23.57-.82l.19-1a.46.46 0 01.61 0c0 .56-.1 1.48-.1 2.37 0 .89.1 1.74.1 2.26a.47.47 0 01-.61 0l-.22-.92a1 1 0 00-.72-.89 8.15 8.15 0 00-1.82-.12h-1.31c-.71 0-.78 0-.78.64v3.43c0 1.25.07 2.05.45 2.45.38.4.77.54 2.84.54a6.91 6.91 0 003-.35 6 6 0 001.67-2.28.42.42 0 01.58.16 20.56 20.56 0 01-1 3.27c-2.12 0-4.22-.07-6.31-.07h-2.15c-1 0-1.8 0-3.19.07a.46.46 0 01-.05-.59l.77-.07c1.35-.11 1.47-.47 1.47-2.94V69zM224.32 78.6c0 .94.14 1.51.56 1.67a.21.21 0 010 .29 5.05 5.05 0 00-1.15.21 18.92 18.92 0 01-4.21.6 9.82 9.82 0 01-7.18-2.6 7.41 7.41 0 01-2.16-5.34 8.05 8.05 0 012.12-5.57c1.57-1.65 3.9-2.76 7.45-2.76a13.58 13.58 0 013 .36 6.16 6.16 0 001.46.21 26.75 26.75 0 00.35 3.41c-.07.19-.49.21-.64.07-.65-2.54-2.42-3.34-4.82-3.34-4.56 0-6.56 3.24-6.56 6.77 0 4.52 2.33 8.07 7.06 8.07 1.45 0 2.32-.31 2.58-.71.2-.417.283-.88.24-1.34v-.94c0-2-.07-2.11-1.53-2.28l-1-.12a.39.39 0 010-.59c.68.05 2 .08 3.36.08.92 0 1.71 0 2.49-.08a.4.4 0 010 .59h-.37c-1 .11-1 .78-1 2l-.05 1.34zM230.21 69c0-2.44 0-2.79-1.43-3h-.38c-.14-.09-.09-.52.05-.59 1 .05 1.81.07 2.77.07h4.42c1.51 0 2.9 0 3.18-.07a27.75 27.75 0 01.38 3.13.47.47 0 01-.59 0c-.35-1.1-.57-1.92-1.79-2.23a11.06 11.06 0 00-2.28-.14h-1.7c-.7 0-.7 0-.7.94v4.7c0 .66.07.66.78.66h1.36a8.39 8.39 0 002-.14c.28-.09.45-.23.56-.82l.19-1c.12-.14.52-.14.61 0 0 .56-.09 1.48-.09 2.37 0 .89.09 1.74.09 2.26-.09.16-.49.16-.61 0l-.21-.92a1 1 0 00-.73-.89 8 8 0 00-1.81-.12h-1.36c-.71 0-.78 0-.78.64v3.43c0 1.25.07 2.05.45 2.45.38.4.77.54 2.84.54a7 7 0 003-.35 5.91 5.91 0 001.66-2.28.43.43 0 01.59.16 19.59 19.59 0 01-1.06 3.27c-2.11 0-4.21-.07-6.3-.07h-2.12c-1 0-1.81 0-3.2.07a.46.46 0 010-.59l.77-.07c1.34-.11 1.46-.47 1.46-2.94l-.02-8.47zM245.12 69.03c0-2.23-.07-2.64-1-2.75l-.75-.09a.39.39 0 010-.59c1.32-.12 2.94-.19 5.25-.19a8.48 8.48 0 013.93.7 3.53 3.53 0 012 3.3 4.35 4.35 0 01-2.94 3.92c-.12.14 0 .38.12.57 1.88 3 3.12 4.91 4.72 6.26a2.79 2.79 0 001.63.65.2.2 0 010 .33 3.68 3.68 0 01-1 .12c-2 0-3.19-.59-4.87-3-.61-.88-1.57-2.49-2.3-3.55a1.68 1.68 0 00-1.67-.76c-1.06 0-1.11 0-1.11.52v3c0 2.47 0 2.76 1.42 2.94l.49.07a.45.45 0 01-.05.59c-1.06 0-1.86-.07-2.79-.07-.93 0-1.84 0-2.95.07-.14-.07-.18-.42 0-.59l.58-.07c1.37-.16 1.42-.47 1.42-2.94l-.13-8.44zm1.92 3.36c0 .43 0 .69.08.78.08.09.42.12 1.62.12a3.93 3.93 0 002.42-.62 3.34 3.34 0 001.18-2.91 3.46 3.46 0 00-3.76-3.62c-1.46 0-1.54.09-1.54.75v5.5zM270.77 81.37a7.41 7.41 0 01-3.68-.86 11.4 11.4 0 01-.63-3.29c.12-.17.47-.22.57-.08.35 1.2 1.31 3.51 4 3.51a2.67 2.67 0 002.94-2.7 3.54 3.54 0 00-1.93-3.3l-2.23-1.46a5 5 0 01-2.54-4c0-2.24 1.74-4.05 4.8-4.05a9.32 9.32 0 012.18.31c.27.082.549.129.83.14.274.932.416 1.898.42 2.87a.47.47 0 01-.59.07 3.08 3.08 0 00-3.2-2.66 2.46 2.46 0 00-2.79 2.61 3.66 3.66 0 002 2.89l1.88 1.18a5.29 5.29 0 012.95 4.52c0 2.58-2 4.34-5 4.34M282.12 67.1a10.14 10.14 0 016.35-2c1.404.026 2.8.217 4.16.57.212.075.436.105.66.09 0 .54.14 2 .33 3.46a.51.51 0 01-.64.05c-.35-1.6-1.41-3.44-4.82-3.44-3.6 0-6.65 2.28-6.65 7.15 0 4.87 3.13 7.67 7 7.67a5 5 0 004.92-3.37.51.51 0 01.61.1 9 9 0 01-1.13 3.22 4.32 4.32 0 00-.82.24 13.91 13.91 0 01-3.72.53 10.33 10.33 0 01-5.86-1.57 7.57 7.57 0 01-3.33-6.47 7.8 7.8 0 013-6.23M301.77 73.41c-1.13 0-1.18 0-1.18.75v3.31c0 2.47.12 2.8 1.44 2.94l.68.07a.46.46 0 010 .59c-1.26 0-2.07-.07-3-.07-.93 0-1.81 0-2.73.07a.46.46 0 01-.05-.59l.4-.07c1.32-.23 1.37-.47 1.37-2.94V69c0-2.46-.17-2.86-1.39-3h-.61c-.14-.09-.1-.52 0-.59 1.16 0 2 .07 3 .07s1.72 0 2.73-.07c.14.07.18.5 0 .59h-.44c-1.37.14-1.42.49-1.42 3v2.71c0 .73.05.76 1.18.76h6.73c1.12 0 1.17 0 1.17-.76V69c0-2.46-.05-2.81-1.43-3h-.45c-.14-.09-.09-.52 0-.59 1.08.05 1.88.07 2.84.07s1.72 0 2.78-.07c.14.07.19.5.05.59h-.5c-1.36.14-1.41.49-1.41 3v8.47c0 2.47 0 2.78 1.41 2.94l.57.07a.47.47 0 01-.05.59c-1.13 0-1.93-.07-2.85-.07-.92 0-1.81 0-2.84.07a.46.46 0 010-.59l.45-.07c1.43-.23 1.43-.47 1.43-2.94v-3.31c0-.71-.05-.75-1.17-.75h-6.71zM316.6 73.41a8.13 8.13 0 018.37-8.31 7.75 7.75 0 018.17 8.07 8 8 0 01-8.17 8.2c-5.22 0-8.37-3.73-8.37-8m14.19.49c0-3.88-1.72-8.07-6.21-8.07-2.45 0-5.63 1.67-5.63 6.82 0 3.48 1.7 8 6.33 8 2.82 0 5.51-2.12 5.51-6.75M336.47 73.41a8.13 8.13 0 018.37-8.31 7.74 7.74 0 018.16 8.07 8 8 0 01-8.16 8.2c-5.22 0-8.37-3.73-8.37-8m14.18.49c0-3.88-1.72-8.07-6.21-8.07-2.45 0-5.62 1.67-5.62 6.82 0 3.48 1.69 8 6.33 8 2.82 0 5.5-2.12 5.5-6.75M358.07 69c0-2.46 0-2.84-1.53-3h-.58c-.15-.09-.1-.52 0-.59 1.32.05 2.12.07 3.06.07s1.72 0 2.89-.07c.14.07.19.5.05.59h-.56c-1.39.11-1.44.49-1.44 3v8.19c0 1.48.07 2.09.49 2.54.26.26.71.54 2.57.54 1.86 0 2.49-.09 2.87-.3a5 5 0 001.55-2.33c.14-.12.59 0 .59.14a18.65 18.65 0 01-1 3.29c-1.2 0-3.43-.07-5.86-.07h-2.16c-1 0-1.74 0-3.06.07a.45.45 0 010-.59l.7-.07c1.37-.14 1.41-.47 1.41-2.94l.01-8.47zM152.81 99.94a8.86 8.86 0 01-2.49 5.34 4.5 4.5 0 01-3.36 1.63c-1.51 0-2.49-1.11-2.35-3.14a8.8 8.8 0 012.56-5.26 4.56 4.56 0 013.25-1.53c1.67 0 2.49 1.24 2.39 3m-4.28-1.12a13.56 13.56 0 00-2.35 5.87c-.05.83.28 1.51 1 1.51.52 0 1.1-.21 1.86-1.23a14.37 14.37 0 002.18-5.73c0-.73-.11-1.56-.94-1.56-.47 0-1 .22-1.72 1.14M159.63 98.18c-.14.4-.33 1.15-.61 2.18-.7 2.64-1.34 4.9-2.09 7.49a9.41 9.41 0 01-1.86 3.78 4.38 4.38 0 01-2.82 1.27c-1.27 0-1.72-.8-1.72-1.15a1.37 1.37 0 01.54-1.06.39.39 0 01.54.09c.452.544 1.09.9 1.79 1 .47 0 1-.17 1.5-2 1.08-3.71 1.91-7.76 3-11.59h-2a.59.59 0 01.17-.87h2a14.34 14.34 0 012.64-5.6 4.75 4.75 0 013.76-1.95 1.72 1.72 0 011.81 1.55c0 .61-.63 1.34-1 1.34-.21 0-.31-.21-.33-.38-.07-1.29-.73-1.72-1.32-1.72a2.46 2.46 0 00-1.69 1.28 17.73 17.73 0 00-2.19 5.48h2.94a.63.63 0 01-.23.87l-2.83-.01zM178.72 101.12c-.16-.52-.26-.59-1-.59h-3.52c-.58 0-.72.07-.89.57l-.82 2.46a8.65 8.65 0 00-.52 2c0 .28.12.42.68.47l.78.07a.37.37 0 01-.05.58c-.61 0-1.34 0-2.44-.06-.78 0-1.63 0-2.26.06a.46.46 0 01-.05-.58l.78-.07a1.58 1.58 0 001.41-1.16c.42-1.08 1.08-2.61 2.07-5.24l2.4-6.35a3.37 3.37 0 00.4-1.67 2.73 2.73 0 001.22-.89.33.33 0 01.35.21c.31 1 .68 2.11 1 3.15l3.22 9.45c.68 2 1 2.38 2 2.5l.63.07c.17.11.12.49 0 .58-1 0-1.78-.06-2.84-.06-1.06 0-2 0-2.71.06a.38.38 0 010-.58l.68-.07c.49 0 .82-.19.82-.43a4.59 4.59 0 00-.3-1.24l-1.04-3.24zm-4.66-2.1c-.18.55-.16.57.5.57h2.89c.68 0 .73-.1.52-.73l-1.27-3.83a15.49 15.49 0 00-.54-1.48 12.15 12.15 0 00-.56 1.38l-1.54 4.09zM188 94.6c0-2.23-.07-2.63-1-2.75l-.75-.09a.39.39 0 010-.59c1.31-.12 2.94-.19 5.24-.19a8.3 8.3 0 013.93.71 3.48 3.48 0 011.95 3.29 4.35 4.35 0 01-2.94 3.93c-.12.14 0 .37.12.56 1.88 3 3.13 4.92 4.73 6.26a2.83 2.83 0 001.62.66.19.19 0 010 .33 3.72 3.72 0 01-1 .11c-2 0-3.2-.58-4.87-3-.61-.87-1.58-2.49-2.3-3.55a1.69 1.69 0 00-1.68-.75c-1.05 0-1.1 0-1.1.51v3c0 2.47 0 2.75 1.41 2.93l.49.08a.44.44 0 010 .58c-1.06 0-1.86-.06-2.8-.06-.94 0-1.84 0-2.94.06-.14-.06-.19-.42-.05-.58l.59-.08c1.37-.16 1.41-.46 1.41-2.93L188 94.6zm1.93 3.37a1.83 1.83 0 00.07.77c.07.08.42.12 1.62.12a3.91 3.91 0 002.38-.58 3.38 3.38 0 001.18-2.92 3.46 3.46 0 00-3.76-3.62c-1.46 0-1.53.09-1.53.75l.04 5.48zM208.91 103.05c0 2.47 0 2.82 1.41 2.94l.75.07c.14.09.09.52-.05.58-1.34 0-2.14-.06-3.08-.06s-1.76 0-3.27.06a.4.4 0 010-.58l.85-.07c1.34-.12 1.46-.47 1.46-2.94V92.54c0-.74 0-.76-.71-.76H205c-1 0-2.31.05-2.89.59a4.24 4.24 0 00-1.06 1.62.45.45 0 01-.61-.16 26.59 26.59 0 00.89-3.51c.07 0 .38-.07.45 0 .14.75.91.73 2 .73h9.52c1.27 0 1.48 0 1.83-.66.12 0 .38 0 .43.07a13.78 13.78 0 00-.35 3.58.45.45 0 01-.62.05c-.07-.59-.23-1.46-.58-1.72a4.7 4.7 0 00-2.73-.59h-1.67c-.71 0-.68 0-.68.8l-.02 10.47zM221.93 106.95a7.33 7.33 0 01-3.67-.87 11 11 0 01-.64-3.29c.12-.16.47-.21.57-.07.35 1.2 1.32 3.5 4 3.5a2.67 2.67 0 002.94-2.7 3.55 3.55 0 00-1.92-3.3L221 98.77a5 5 0 01-2.54-4.05c0-2.23 1.74-4 4.8-4a9.41 9.41 0 012.19.3c.266.081.542.129.82.14.274.932.415 1.898.42 2.87-.09.14-.47.22-.59.07a3.07 3.07 0 00-3.19-2.66 2.46 2.46 0 00-2.8 2.62 3.7 3.7 0 002 2.89l1.89 1.13a5.3 5.3 0 012.94 4.52c0 2.59-1.95 4.35-5 4.35M244.8 92.54a.91.91 0 01-.89.93c-.42 0-.56-.28-.66-.7a.89.89 0 00-.85-.68 2.25 2.25 0 00-1.52.75 4.16 4.16 0 00-1.18 3c-.018.34.03.679.14 1a2.9 2.9 0 011.93-.82 1.88 1.88 0 012.05 1.95 1.94 1.94 0 01-2.05 1.95 2.55 2.55 0 01-2.35-1.55 4.09 4.09 0 00-.61 2.4c0 2 1.57 4.65 5.38 4.65a6.11 6.11 0 003.7-1.2 5.81 5.81 0 002.18-4.35 4.43 4.43 0 00-.52-2.47c-.14-.19-.61-.33-1.55-.33a1.59 1.59 0 00-1.74 1.6.61.61 0 00.47.66c.17 0 .26-.09.38-.31s.28-.44.63-.44a.72.72 0 01.73.75c0 .64-.63 1-1.27 1a1.67 1.67 0 01-1.69-1.7c0-.575.218-1.129.61-1.55a3.5 3.5 0 012.54-1h1.93c.99 0 3.5 0 3.5-2.49a1.88 1.88 0 00-1.81-1.91.48.48 0 00-.47.42c0 .12.05.22.24.36a.94.94 0 01-.52 1.76 1.17 1.17 0 01-1.15-1.22 1.9 1.9 0 012-1.88 2.73 2.73 0 012.54 3 2.89 2.89 0 01-1 2.28 5.17 5.17 0 01-3.41 1c-.26 0-.31.1-.21.4a7.48 7.48 0 01.63 2.76 6.72 6.72 0 01-6.91 6.4c-4.92 0-6.33-3.42-6.33-5.72a5.81 5.81 0 011.32-3.65 5.14 5.14 0 01-.21-1.6 5.46 5.46 0 011.17-3.38 3.93 3.93 0 012.87-1.49c1.2 0 1.88.71 1.88 1.47m-4.75 4.93a1.89 1.89 0 001.79 1.51 1 1 0 001.13-1 1.24 1.24 0 00-1.32-1.25 2.24 2.24 0 00-1.6.75M266.66 106.95a7.36 7.36 0 01-3.67-.87 11.08 11.08 0 01-.63-3.29c.12-.16.47-.21.56-.07.36 1.2 1.32 3.5 4.05 3.5a2.67 2.67 0 002.94-2.7 3.55 3.55 0 00-1.93-3.3l-2.23-1.45a5 5 0 01-2.55-4.05c0-2.23 1.75-4 4.8-4a9.34 9.34 0 012.19.3c.267.08.542.127.82.14a10 10 0 01.43 2.87c-.1.14-.47.22-.59.07a3.09 3.09 0 00-3.2-2.66 2.47 2.47 0 00-2.8 2.62 3.7 3.7 0 002 2.89l1.88 1.17a5.3 5.3 0 012.94 4.52c0 2.59-1.95 4.35-5 4.35M277.45 92.68a10.1 10.1 0 016.35-2 18 18 0 014.2.6c.208.074.43.105.65.09 0 .55.14 2 .33 3.46a.48.48 0 01-.63.05c-.35-1.6-1.41-3.44-4.82-3.44-3.6 0-6.66 2.29-6.66 7.15s3.13 7.67 7 7.67a5 5 0 004.91-3.36.49.49 0 01.61.09 8.52 8.52 0 01-1.13 3.22 4.55 4.55 0 00-.82.24 13.79 13.79 0 01-3.71.54 10.31 10.31 0 01-5.86-1.57 7.6 7.6 0 01-3.34-6.47 7.79 7.79 0 013-6.23M294 94.63c0-2.5-.05-2.89-1.43-3h-.59c-.14-.09-.1-.52 0-.59 1.17.05 2 .07 3 .07s1.74 0 2.92-.07c.14.07.18.5 0 .59h-.58c-1.39.12-1.44.51-1.44 3V103c0 2.49.05 2.82 1.44 3l.58.07c.14.09.1.52 0 .58-1.18 0-2-.06-2.92-.06-.92 0-1.79 0-3 .06-.15-.06-.19-.44 0-.58l.59-.07c1.38-.17 1.43-.5 1.43-3v-8.37zM303.12 94.58c0-2.45 0-2.8-1.43-3h-.38c-.14-.09-.09-.52.05-.59 1 .05 1.81.07 2.77.07h4.43c1.5 0 2.89 0 3.17-.07a27.75 27.75 0 01.38 3.13.47.47 0 01-.59.05c-.35-1.11-.56-1.93-1.79-2.24a11.06 11.06 0 00-2.28-.14h-1.69c-.71 0-.71.05-.71.94v4.7c0 .66.07.66.78.66h1.36a8.39 8.39 0 002-.14c.28-.09.45-.23.57-.82l.18-1c.12-.14.52-.14.61 0 0 .56-.09 1.48-.09 2.37 0 .89.09 1.75.09 2.26-.09.17-.49.17-.61 0l-.21-.91a1 1 0 00-.73-.9 8.24 8.24 0 00-1.81-.11h-1.36c-.71 0-.78 0-.78.63v3.32c0 1.25.07 2.05.45 2.44.38.39.77.55 2.84.55a6.88 6.88 0 003-.36 5.82 5.82 0 001.66-2.28.43.43 0 01.59.17 19.47 19.47 0 01-1.06 3.26c-2.113-.04-4.213-.06-6.3-.06h-2.12c-1 0-1.81 0-3.19.06-.14-.06-.19-.44-.05-.58l.77-.07c1.35-.12 1.46-.47 1.46-2.94l.02-8.4zM330.68 102.58c0 .7 0 3.5.07 4.11a.42.42 0 01-.44.26c-.29-.4-1-1.22-3-3.55l-5.45-6.21c-.63-.73-2.23-2.66-2.73-3.17h-.05a6.21 6.21 0 00-.11 1.52v5.13c0 1.11 0 4.16.42 4.87.14.26.61.4 1.2.45l.73.07a.42.42 0 01-.05.58c-1.06 0-1.88-.06-2.75-.06-.87 0-1.62 0-2.45.06a.42.42 0 010-.58l.63-.07c.54-.08.92-.22 1-.47a23.4 23.4 0 00.3-4.85v-6.79a2.17 2.17 0 00-.51-1.7 2.59 2.59 0 00-1.46-.56h-.4c-.15-.14-.15-.5 0-.59 1 .07 2.24.07 2.66.07a7.08 7.08 0 001.08-.07c.47 1.2 3.25 4.31 4 5.18l2.28 2.56c1.62 1.81 2.77 3.13 3.88 4.25a2.16 2.16 0 00.1-1v-5c0-1.11 0-4.17-.47-4.87-.15-.21-.52-.35-1.46-.47h-.4c-.17-.14-.14-.52.05-.59 1.08.05 1.88.07 2.77.07.89 0 1.62 0 2.42-.07a.42.42 0 01.05.59h-.33c-.75.12-1.22.3-1.31.49-.4.85-.36 3.77-.36 4.85l.09 5.56zM338 92.68a10.1 10.1 0 016.35-2 18 18 0 014.17.56c.211.075.436.106.66.09 0 .55.14 2 .32 3.46a.48.48 0 01-.63.05c-.35-1.6-1.41-3.44-4.82-3.44-3.6 0-6.66 2.29-6.66 7.15s3.13 7.67 7 7.67a5 5 0 004.91-3.36.49.49 0 01.61.09 8.52 8.52 0 01-1.13 3.22 4.55 4.55 0 00-.82.24 13.79 13.79 0 01-3.71.54 10.33 10.33 0 01-5.86-1.57 7.6 7.6 0 01-3.34-6.47 7.79 7.79 0 013-6.23M354.51 94.58c0-2.45 0-2.8-1.43-3h-.38c-.14-.09-.09-.52.05-.59 1 .05 1.81.07 2.77.07H360c1.5 0 2.89 0 3.17-.07a27.75 27.75 0 01.38 3.13.47.47 0 01-.59.05c-.35-1.11-.56-1.93-1.79-2.24a11.06 11.06 0 00-2.28-.14h-1.69c-.71 0-.71.05-.71.94v4.7c0 .66.07.66.78.66h1.36a8.39 8.39 0 002-.14c.28-.09.45-.23.57-.82l.18-1c.12-.14.52-.14.61 0 0 .56-.09 1.48-.09 2.37 0 .89.09 1.75.09 2.26-.09.17-.49.17-.61 0l-.21-.91a1 1 0 00-.73-.9 8.24 8.24 0 00-1.81-.11h-1.36c-.71 0-.78 0-.78.63v3.32c0 1.25.07 2.05.45 2.44.38.39.77.55 2.84.55a6.8 6.8 0 003-.36 5.81 5.81 0 001.68-2.28.42.42 0 01.58.17 19.47 19.47 0 01-1.06 3.26c-2.113-.04-4.213-.06-6.3-.06h-2.12c-1 0-1.81 0-3.19.06-.15-.06-.19-.44-.05-.58l.77-.07c1.34-.12 1.46-.47 1.46-2.94l-.04-8.4zM371.68 106.95a7.29 7.29 0 01-3.67-.87 10.73 10.73 0 01-.64-3.29c.12-.16.47-.21.57-.07.35 1.2 1.31 3.5 4 3.5a2.67 2.67 0 002.94-2.7 3.55 3.55 0 00-1.93-3.3l-2.23-1.45a5 5 0 01-2.54-4.05c0-2.23 1.74-4 4.8-4a9.25 9.25 0 012.18.3c.27.08.549.128.83.14.274.932.415 1.898.42 2.87-.1.14-.47.22-.59.07a3.08 3.08 0 00-3.2-2.66 2.47 2.47 0 00-2.8 2.62 3.7 3.7 0 002 2.89l1.89 1.17a5.3 5.3 0 012.94 4.52c0 2.59-2 4.35-5 4.35"></path></g><g><path d="M510.23 32.68h-3.59l7.1-17.7h4.53l7.1 17.7h-3.59l-1.45-3.71h-8.62l-1.48 3.71zm6.38-13.2a16.19 16.19 0 01-.61-1.94c-.14.52-.31 1.16-.6 1.94l-2.53 6.41h6.27l-2.53-6.41zM533.43 14.98c6.27 0 9.78 3.28 9.78 8.76s-3.57 8.94-9.78 8.94h-5.8v-17.7h5.8zm0 14.65c4.12 0 6.39-2.06 6.39-5.89 0-3.83-2.21-5.71-6.39-5.71H531v11.6h2.43zM550.6 32.68l-7.1-17.7h3.74l4.64 12.3c.23.66.43 1.36.64 2 .17-.69.37-1.39.6-2L557.91 15h3.6l-7.11 17.7-3.8-.02zM563.27 32.68h-3.59l7.1-17.7h4.53l7.11 17.7h-3.6l-1.45-3.71h-8.62l-1.48 3.71zm6.39-13.2a14.54 14.54 0 01-.61-1.94c-.15.52-.32 1.16-.61 1.94l-2.53 6.41h6.27l-2.52-6.41zM593.23 32.68L584 20.58v12.1h-3.37v-17.7h3.08l9.16 12.16V14.98h3.37v17.7zM615.1 30.82a12.93 12.93 0 01-7.37 2.12c-5.28 0-8.47-3.28-8.47-9.08 0-5.8 3.19-9.17 8.76-9.17a14.16 14.16 0 016.41 1.54l-1 2.55a15.12 15.12 0 00-5.22-1c-3.6 0-5.49 2.09-5.49 6.09 0 3.74 2 6 5.23 6a11.93 11.93 0 006-1.57l1.15 2.52zM617.68 32.68v-17.7H630v3.11h-9v4.26h7.78v3H621v4.23h9.2v3.08zM639.23 14.98c6.26 0 9.77 3.28 9.77 8.76s-3.57 8.94-9.77 8.94h-5.81v-17.7h5.81zm0 14.65c4.11 0 6.38-2.06 6.38-5.89 0-3.83-2.21-5.71-6.38-5.71h-2.44v11.6h2.44z"></path></g><g><path d="M510.23 65.18h-3.59l7.1-17.7h4.53l7.1 17.7h-3.59l-1.45-3.71h-8.62l-1.48 3.71zm6.38-13.2a16.19 16.19 0 01-.61-1.94c-.14.52-.31 1.16-.6 1.94l-2.53 6.41h6.27l-2.53-6.41zM541.85 63.28a13 13 0 01-7.37 2.12c-5.28 0-8.47-3.28-8.47-9.08 0-5.8 3.19-9.17 8.76-9.17a14.22 14.22 0 016.41 1.54l-1 2.55a15 15 0 00-5.22-1c-3.59 0-5.48 2.09-5.48 6.09 0 3.74 2 6 5.22 6a11.94 11.94 0 006-1.57l1.15 2.52zM546.69 65.18h-3.6l7.11-17.7h4.52l7.11 17.7h-3.6l-1.45-3.71h-8.61l-1.48 3.71zm6.38-13.2a14.54 14.54 0 01-.61-1.94c-.15.52-.32 1.16-.61 1.94l-2.52 6.41h6.26l-2.52-6.41zM569.89 47.48c6.26 0 9.77 3.28 9.77 8.76s-3.57 8.94-9.77 8.94h-5.8v-17.7h5.8zm0 14.65c4.12 0 6.38-2.06 6.38-5.89 0-3.83-2.21-5.71-6.38-5.71h-2.44v11.6h2.44zM582.59 65.18v-17.7h12.33v3.11h-9v4.26h7.78v3H586v4.23h9.2v3.08zM614.55 54.16v-.88l-5.11 11.92h-2.35L602 53.28v.81l-.35 11.11h-3.39l.66-17.7h3.92l5 11.69c.17.44.29.88.37 1.16a11 11 0 01.44-1.16l5-11.69h3.92l.66 17.7h-3.39l-.29-11.04zM622.55 65.18v-17.7h3.36v17.7zM644.74 63.28a13 13 0 01-7.37 2.12c-5.28 0-8.47-3.28-8.47-9.08 0-5.8 3.19-9.17 8.76-9.17a14.19 14.19 0 016.41 1.54L643 51.28a15.13 15.13 0 00-5.23-1c-3.59 0-5.48 2.09-5.48 6.09 0 3.74 2 6 5.22 6a11.94 11.94 0 006-1.57l1.23 2.48z"></path></g><g><path d="M514.87 79.99c4.76 0 7.43 2.32 7.43 6.49s-2.61 6.47-7.28 6.47h-3.22v4.73h-3.37V79.99h6.44zm.12 9.94c2.61 0 4.06-1.21 4.06-3.45S517.54 83 514.87 83h-3.07v6.93h3.19zM539.76 97.68h-3.66l-4.17-5.4h-3.54v5.37H525V79.99h6.82c4.76 0 7.45 2.26 7.45 6.29a5.64 5.64 0 01-4 5.57l4.47 5.57.02.26zm-7.86-8.24c2.55 0 4-1.16 4-3.16s-1.45-3.25-4-3.28h-3.51v6.44h3.51zM558.41 88.86c0 5.8-3.2 9.08-8.62 9.08-5.42 0-8.59-3.28-8.59-9.08 0-5.8 3.2-9.17 8.59-9.17s8.62 3.28 8.62 9.17zm-3.43 0c0-4-1.88-6.09-5.19-6.09-3.31 0-5.19 2.09-5.19 6.09s1.88 6 5.19 6c3.31 0 5.21-2.05 5.21-6h-.02zM577.34 95.59a15.69 15.69 0 01-8.35 2.35c-5.11 0-8.3-3.25-8.3-9.08 0-5.63 3.28-9.17 8.59-9.17a19.83 19.83 0 017.25 1.4l-.9 2.64a19.82 19.82 0 00-6-1c-3.46 0-5.52 2.26-5.52 6.09s1.89 6.06 5 6.06a10 10 0 005.14-1.13v-2.69h-5.46v-2.88h8.53l.02 7.41zM595.5 97.68h-3.66l-4.18-5.4h-3.54v5.37h-3.36V79.99h6.82c4.75 0 7.45 2.26 7.45 6.29a5.65 5.65 0 01-4 5.57l4.47 5.57v.26zm-7.87-8.24c2.56 0 4-1.16 4-3.16s-1.45-3.25-4-3.28h-3.51v6.44h3.51zM600 97.68h-3.6l7.11-17.69h4.52l7.11 17.69h-3.6l-1.45-3.71h-8.59l-1.5 3.71zm6.38-13.2a16.19 16.19 0 01-.61-1.94c-.15.52-.32 1.16-.61 1.94l-2.52 6.41h6.26l-2.52-6.41zM633.63 86.66v-.9l-5.1 11.92h-2.35l-5.08-11.92v.81l-.35 11.11h-3.39l.66-17.69h3.92l5 11.68c.17.44.29.88.38 1.16a8.85 8.85 0 01.43-1.16l5-11.68h3.92l.66 17.69H634l-.37-11.02zM652.65 83.75a15.11 15.11 0 00-5.68-1.21c-1.6 0-2.55.84-2.55 1.8 0 1.68 1.19 1.94 4.64 3.1 3.25 1.07 5 2.2 5 5.31 0 3.42-2.53 5.19-6 5.19a18 18 0 01-8-2.26l1.31-2.64a15.33 15.33 0 006.5 1.94c1.59 0 2.61-.67 2.61-1.91 0-1.54-.82-2-4.44-3.11-3-.9-5.14-2.09-5.14-5.33 0-2.88 2.18-4.94 5.83-4.94a17.13 17.13 0 016.88 1.48l-.96 2.58z"></path></g><path d="M468.69 0h1.93v82.39h-1.93z"></path></g></svg>